<?xml version="1.0" standalone="no"?>
<!DOCTYPE svg PUBLIC "-//W3C//DTD SVG 20010904//EN"
 "http://www.w3.org/TR/2001/REC-SVG-20010904/DTD/svg10.dtd">
<svg version="1.0" xmlns="http://www.w3.org/2000/svg"
 width="231.000000pt" height="249.000000pt" viewBox="0 0 231.000000 249.000000"
 preserveAspectRatio="xMidYMid meet">

<g transform="translate(0.000000,249.000000) scale(0.100000,-0.100000)"
fill="#000000" stroke="none">
<path d="M1676 2319 c-26 -4 -58 -16 -70 -26 -11 -11 -47 -27 -78 -36 -64 -20
-162 -88 -203 -141 -23 -30 -31 -34 -55 -29 -44 8 -92 -28 -146 -109 -26 -38
-60 -104 -76 -146 -26 -67 -29 -81 -19 -113 13 -44 119 -161 188 -209 l49 -34
-25 -50 c-37 -71 -84 -115 -197 -181 -177 -104 -277 -177 -365 -264 -109 -109
-154 -194 -171 -323 l-11 -87 -47 24 c-66 34 -132 111 -160 187 -28 76 -41 92
-68 84 -60 -19 -52 -229 13 -362 51 -103 127 -170 238 -209 l59 -20 25 -85
c13 -47 28 -89 32 -93 11 -11 335 -29 461 -25 l105 3 19 38 c20 42 35 36 36
-13 0 -14 4 -30 8 -37 16 -25 89 -45 184 -50 80 -5 102 -3 123 11 44 29 27
111 -40 185 -45 50 -63 95 -75 186 -11 84 -6 105 21 105 65 0 185 78 231 150
l15 25 30 -60 c29 -57 93 -222 164 -425 43 -122 60 -140 136 -140 87 0 223 18
239 31 40 33 -1 116 -76 154 -63 32 -126 94 -150 149 -33 73 -41 191 -39 529
3 363 5 356 -81 514 -22 41 -40 80 -40 86 0 6 10 21 22 34 19 20 24 43 34 169
7 80 15 148 17 151 3 2 20 -5 38 -16 87 -53 112 -12 113 189 1 153 -13 199
-70 233 -61 35 -249 61 -338 46z m179 -74 c114 -20 143 -35 150 -80 3 -19 7
-51 10 -70 3 -19 3 -68 -1 -109 -5 -57 -10 -73 -20 -69 -16 6 -90 94 -153 182
-25 34 -63 75 -85 91 -69 52 -105 31 -45 -26 17 -16 51 -60 77 -99 25 -38 55
-82 67 -96 19 -24 21 -33 14 -90 -4 -35 -11 -117 -15 -182 -7 -113 -8 -118
-34 -137 -15 -11 -47 -25 -71 -31 -44 -11 -45 -11 -154 49 -123 67 -148 75
-153 51 -2 -12 21 -30 80 -62 46 -25 92 -53 103 -61 20 -15 20 -15 -1 -16 -32
0 -207 46 -241 63 -27 14 -30 22 -40 94 -7 43 -10 146 -9 229 3 148 3 152 31
188 54 70 176 146 237 146 15 0 39 11 54 25 32 30 71 32 199 10z m-584 -237
c8 -15 13 -84 15 -193 1 -93 7 -197 13 -229 6 -33 9 -62 6 -64 -6 -7 -72 45
-127 99 -54 54 -88 105 -88 133 0 30 84 198 119 239 38 43 46 45 62 15z m121
-557 c48 -29 143 -51 215 -51 58 0 78 -10 53 -25 -14 -9 -13 -58 2 -73 16 -16
70 -15 90 1 28 22 29 47 4 71 l-23 24 36 6 c71 11 79 8 107 -39 61 -105 65
-135 63 -514 -2 -437 6 -483 105 -584 24 -25 69 -60 99 -77 51 -29 75 -55 62
-68 -9 -9 -198 -19 -225 -12 -22 6 -32 27 -91 196 -75 215 -116 316 -159 392
-25 43 -35 52 -58 52 -22 0 -32 -9 -51 -46 -31 -58 -93 -111 -151 -128 -25 -7
-46 -10 -48 -7 -1 4 20 76 48 160 48 145 54 181 30 181 -12 0 -27 -34 -86
-207 -40 -117 -48 -153 -52 -235 -5 -122 20 -218 73 -277 38 -41 69 -106 60
-121 -8 -13 -96 -11 -164 3 l-54 12 -27 85 c-14 47 -34 99 -43 117 -16 30 -16
33 10 79 21 38 27 60 26 112 0 54 -7 76 -41 145 -23 45 -55 97 -71 115 -26 28
-34 31 -51 22 -27 -15 -25 -25 15 -80 90 -122 110 -220 61 -302 -25 -43 -29
-46 -52 -38 -14 6 -48 10 -75 10 -27 0 -49 2 -49 4 0 2 16 27 35 56 37 56 68
145 63 182 -2 17 -10 23 -27 23 -20 0 -27 -9 -45 -66 -29 -90 -67 -140 -148
-199 -37 -28 -68 -54 -68 -59 0 -5 7 -14 15 -21 12 -10 27 -11 68 -2 125 27
208 22 235 -15 7 -10 12 -37 10 -63 l-3 -45 -224 3 c-123 1 -232 7 -241 12
-19 10 -63 174 -75 282 -6 56 -6 57 21 60 39 4 42 26 5 39 -27 10 -31 16 -31
49 0 126 53 244 154 345 83 82 156 135 321 235 66 39 137 88 158 108 44 42 87
119 87 156 0 19 6 26 28 29 15 2 30 5 34 6 4 0 22 -8 40 -18z m-1102 -797 c35
-49 132 -118 179 -129 27 -6 29 -9 38 -88 6 -45 9 -84 7 -85 -1 -2 -23 6 -49
17 -85 37 -147 104 -183 196 -19 49 -38 135 -30 135 3 0 20 -21 38 -46z"/>
<path d="M1698 1999 c-32 -18 -41 -48 -23 -75 16 -26 44 -31 76 -14 27 15 25
64 -3 84 -26 19 -27 19 -50 5z"/>
<path d="M1466 1874 c-20 -19 -20 -34 0 -62 18 -26 65 -30 88 -6 21 21 20 40
-4 64 -24 24 -63 26 -84 4z"/>
<path d="M1673 1748 c-20 -26 -25 -85 -8 -102 41 -41 130 -3 123 52 -5 42 -92
79 -115 50z"/>
</g>
</svg>
