<?xml version="1.0" standalone="no"?>
<!DOCTYPE svg PUBLIC "-//W3C//DTD SVG 20010904//EN"
 "http://www.w3.org/TR/2001/REC-SVG-20010904/DTD/svg10.dtd">
<svg version="1.0" xmlns="http://www.w3.org/2000/svg"
 width="189.000000pt" height="254.000000pt" viewBox="0 0 189.000000 254.000000"
 preserveAspectRatio="xMidYMid meet">
<metadata>
Created by potrace 1.15, written by Peter Selinger 2001-2017
</metadata>
<g transform="translate(0.000000,254.000000) scale(0.100000,-0.100000)"
fill="#000000" stroke="none">
<path d="M359 2499 c-171 -7 -252 -19 -264 -39 -3 -5 -1 -85 4 -177 6 -92 13
-468 16 -835 l7 -668 -44 0 c-65 -1 -78 -16 -78 -89 0 -78 24 -111 82 -111
l39 0 -1 -235 c-1 -129 1 -239 5 -245 4 -6 53 -10 116 -10 l109 0 0 -34 c0
-49 19 -60 87 -50 58 9 58 9 61 46 l3 38 87 0 c48 0 243 3 433 7 l346 6 -5
-32 c-7 -49 10 -61 92 -61 82 0 96 9 96 61 l0 36 96 6 c52 3 102 11 109 17 12
10 14 50 8 245 l-6 234 54 3 54 3 3 84 c3 97 -2 104 -64 96 l-41 -6 -6 188
c-4 103 -7 325 -7 493 -1 168 -5 465 -10 660 -8 320 -10 356 -26 367 -14 10
-139 13 -598 11 -320 0 -660 -5 -757 -9z m1316 -81 c8 -52 24 -1612 16 -1621
-4 -4 -142 -6 -307 -5 -275 3 -299 4 -302 21 -3 15 5 17 56 17 41 0 63 5 72
15 16 19 -15 434 -33 450 -12 10 -480 1 -535 -11 l-22 -4 2 -223 3 -222 53 -3
c48 -3 53 -5 50 -25 -3 -22 -3 -22 -279 -25 l-277 -2 -6 122 c-3 68 -8 439
-12 825 l-6 701 74 6 c135 12 181 12 815 14 l632 2 6 -32z m-532 -1245 c4 -43
9 -124 13 -179 l7 -102 -237 -7 c-134 -4 -241 -4 -246 1 -6 7 -16 319 -11 357
1 4 106 7 235 7 l233 0 6 -77z m675 -466 c2 -16 -2 -29 -10 -32 -7 -2 -321 -9
-698 -14 -377 -6 -765 -14 -862 -17 l-178 -6 0 41 0 41 273 1 c149 1 520 5
822 9 718 9 649 11 653 -23z m-354 -114 c2 -10 7 -103 10 -208 4 -104 9 -218
12 -252 l6 -63 -35 0 c-35 0 -36 1 -41 42 -10 87 -16 339 -10 417 6 76 8 81
30 81 13 0 25 -7 28 -17z m238 -195 c2 -117 3 -215 1 -217 -2 -2 -38 -6 -81
-9 l-79 -4 -10 213 c-5 118 -8 217 -6 222 2 4 42 7 88 7 l83 0 4 -212z m-332
-18 l0 -220 -95 0 -95 0 -1 43 c-1 23 -4 114 -8 202 l-6 160 -265 0 -265 0 3
-207 3 -208 -69 0 -69 0 -7 46 c-8 59 -8 172 1 296 l6 97 131 4 c72 1 267 4
434 5 l302 2 0 -220z m-1010 148 c0 -35 -3 -134 -7 -220 l-6 -158 -89 0 -88 0
0 214 c0 247 -13 222 118 225 l72 1 0 -62z m85 -40 c3 -57 5 -175 3 -263 -2
-134 -5 -160 -18 -160 -13 0 -16 37 -20 255 -3 140 -4 258 -2 263 2 4 9 7 17
7 10 0 15 -27 20 -102z m669 -14 c3 -26 6 -107 6 -180 l0 -134 -90 0 -90 0 0
180 0 180 84 0 83 0 7 -46z m-236 -141 l-3 -178 -86 -3 -86 -3 -6 98 c-4 54
-7 135 -7 181 l0 82 95 0 95 0 -2 -177z"/>
<path d="M551 2376 c-9 -10 -44 -12 -174 -8 -131 4 -164 2 -172 -9 -7 -9 -8
-97 -5 -239 l5 -225 105 -3 c58 -1 143 1 190 5 l85 8 6 230 c5 215 2 255 -21
255 -4 0 -13 -6 -19 -14z m-11 -131 l0 -85 -55 0 -55 0 0 79 0 80 53 4 c28 2
53 4 55 5 1 1 2 -36 2 -83z m-170 -10 l0 -85 -60 0 -60 0 0 85 0 85 60 0 60 0
0 -85z m170 -192 c0 -38 -4 -73 -8 -79 -4 -7 -63 -14 -144 -18 l-138 -7 0 79
c0 43 3 82 7 85 3 4 69 7 145 7 l138 0 0 -67z"/>
<path d="M653 2353 c-10 -4 -13 -58 -13 -224 0 -188 2 -220 15 -225 9 -4 125
-7 258 -8 l242 -1 -4 220 c-2 121 -6 223 -10 226 -7 8 -470 19 -488 12z m227
-123 l0 -71 -92 3 -93 3 -3 68 -3 67 96 0 95 0 0 -70z m220 -5 l0 -75 -79 0
-78 0 -7 53 c-12 104 -17 97 79 97 l85 0 0 -75z m-37 -121 l37 -7 0 -80 0 -80
-122 6 c-66 4 -159 7 -205 7 l-83 0 0 80 0 80 168 0 c92 0 184 -3 205 -6z"/>
<path d="M1243 2348 c-4 -7 -10 -106 -11 -220 l-4 -207 28 -7 c44 -11 326 4
341 19 19 19 20 406 2 418 -23 14 -346 11 -356 -3z m152 -128 l0 -85 -52 -3
-53 -3 0 91 0 91 53 -3 52 -3 0 -85z m165 0 c0 -76 -1 -80 -24 -86 -13 -3 -37
-4 -52 -2 l-29 3 -3 83 -3 82 56 0 55 0 0 -80z m-8 -192 c-2 -29 -5 -54 -6
-54 0 -1 -58 -4 -129 -8 -145 -7 -144 -8 -133 69 l7 45 133 0 133 0 -5 -52z"/>
<path d="M1272 1828 c-7 -7 -20 -13 -30 -13 -15 0 -17 -15 -20 -135 -1 -74 1
-173 5 -220 l8 -85 180 4 c99 2 186 8 193 13 17 14 17 419 0 436 -17 17 -319
17 -336 0z m65 -48 l53 0 0 -75 0 -75 -59 0 -58 0 -7 46 c-10 79 -8 130 6 116
7 -7 36 -12 65 -12z m223 -70 l0 -70 -34 0 c-18 0 -48 -3 -65 -6 l-31 -6 0 76
0 76 65 0 65 0 0 -70z m3 -192 c3 -40 4 -74 2 -76 -2 -2 -66 -6 -143 -9 l-139
-6 -7 73 c-6 56 -4 75 6 81 7 5 72 9 144 9 l131 0 6 -72z"/>
<path d="M763 1822 c-73 -2 -114 -7 -120 -15 -13 -18 6 -429 20 -444 14 -13
486 3 500 17 8 7 -9 398 -18 427 -4 13 -184 20 -382 15z m100 -59 c3 -5 8 -36
12 -69 l7 -61 -87 -8 c-47 -4 -89 -4 -92 -1 -3 3 -8 37 -11 76 l-5 70 86 0
c47 0 88 -3 90 -7z m237 -63 l0 -70 -89 0 -88 0 -7 38 c-3 20 -6 52 -6 70 l0
32 95 0 95 0 0 -70z m8 -201 l3 -76 -196 -7 c-107 -4 -199 -4 -205 -1 -5 3
-10 40 -10 80 l0 74 158 4 c86 2 177 3 202 2 l45 0 3 -76z"/>
<path d="M285 1791 l-70 -6 2 -165 c2 -91 5 -193 9 -227 l5 -61 77 -8 c97 -9
273 2 288 19 9 9 9 45 2 137 -5 69 -12 168 -16 220 l-7 95 -110 1 c-60 0 -141
-2 -180 -5z m246 -121 c3 -41 3 -78 0 -82 -3 -3 -31 -8 -61 -10 l-55 -3 -3 82
-3 82 33 4 c82 11 82 10 89 -73z m-171 -15 l0 -85 -45 0 -45 0 0 69 c0 38 -3
76 -6 85 -5 13 2 16 45 16 l51 0 0 -85z m189 -247 l1 -28 -134 0 -134 0 -4 63
c-2 34 -3 63 -3 64 1 2 60 6 131 10 l129 8 7 -45 c3 -25 7 -57 7 -72z"/>
<path d="M1370 1291 l-85 -6 3 -210 c1 -116 4 -216 7 -222 5 -16 281 -18 304
-4 17 11 17 15 0 261 -7 91 -16 171 -22 178 -10 12 -50 13 -207 3z m184 -308
c3 -42 5 -77 4 -78 -2 -2 -50 -4 -108 -6 l-105 -4 -3 83 -3 82 104 0 104 0 7
-77z"/>
<path d="M335 1241 l-110 -6 0 -150 c1 -82 3 -177 6 -210 l4 -60 105 3 c58 2
130 6 160 10 l55 7 -2 199 c-2 147 -6 202 -15 208 -7 4 -31 7 -53 6 -22 -1
-89 -4 -150 -7z m165 -300 l0 -59 -92 -6 c-51 -4 -104 -9 -118 -12 -25 -5 -25
-4 -22 66 l4 70 114 0 114 0 0 -59z"/>
<path d="M888 1203 c-37 -4 -38 -5 -38 -44 l0 -39 -45 0 -45 0 0 -45 0 -45 50
0 50 0 0 -50 0 -50 56 0 56 0 -4 53 -3 52 49 3 c48 3 48 3 42 34 -3 17 -6 37
-6 44 0 10 -13 14 -44 14 -44 0 -45 0 -48 37 -3 41 -7 43 -70 36z"/>
</g>
</svg>
