<?xml version="1.0" standalone="no"?>
<!DOCTYPE svg PUBLIC "-//W3C//DTD SVG 20010904//EN"
 "http://www.w3.org/TR/2001/REC-SVG-20010904/DTD/svg10.dtd">
<svg version="1.0" xmlns="http://www.w3.org/2000/svg"
 width="256.000000pt" height="260.000000pt" viewBox="0 0 256.000000 260.000000"
 preserveAspectRatio="xMidYMid meet">
<metadata>
Created by potrace 1.15, written by Peter Selinger 2001-2017
</metadata>
<g transform="translate(0.000000,260.000000) scale(0.100000,-0.100000)"
fill="#000000" stroke="none">
<path d="M1630 2375 c-77 -22 -172 -67 -263 -127 -72 -47 -81 -51 -100 -38
-159 102 -227 125 -357 124 -113 -1 -178 -22 -270 -89 -115 -85 -165 -185
-164 -325 1 -206 148 -459 444 -763 157 -163 393 -377 414 -377 17 0 111 77
171 139 33 35 45 41 80 41 53 -1 135 -30 149 -53 9 -16 4 -25 -37 -62 -41 -37
-60 -47 -140 -66 -75 -19 -119 -23 -244 -24 -161 0 -175 -4 -153 -46 7 -11 21
-19 38 -19 15 0 41 -9 59 -20 55 -33 133 -49 288 -56 144 -7 149 -8 115 -22
-29 -12 -61 -13 -175 -6 -208 11 -248 10 -294 -11 -61 -27 -103 -105 -57 -105
8 0 21 11 30 25 9 14 33 33 52 42 31 15 51 16 197 5 105 -8 182 -9 218 -3 93
16 185 67 265 148 69 71 100 88 144 81 21 -3 20 -7 -26 -67 -53 -70 -197 -201
-287 -261 -32 -21 -123 -69 -203 -106 -79 -38 -144 -72 -144 -76 0 -5 15 -8
34 -8 74 0 324 109 424 184 58 44 160 164 248 289 37 53 69 72 140 84 40 6 58
-16 50 -60 -4 -24 -33 -59 -114 -139 -59 -58 -126 -118 -150 -132 -114 -71
-378 -199 -472 -229 -58 -19 -132 -47 -165 -63 -53 -25 -71 -28 -155 -28 -81
1 -112 6 -215 39 -260 82 -425 109 -645 107 -137 -1 -267 -19 -262 -37 1 -6
86 -10 210 -10 251 -1 405 -24 615 -91 185 -59 294 -78 367 -63 30 6 80 23
110 36 30 14 100 40 156 58 55 18 133 50 174 70 42 21 147 57 249 85 230 63
326 101 429 172 46 31 82 81 82 111 0 10 -11 29 -25 42 -20 21 -34 25 -86 25
l-62 0 6 36 c9 52 -13 99 -53 112 -26 10 -42 8 -86 -7 -30 -10 -57 -14 -60
-10 -3 5 -38 8 -78 6 -63 -2 -78 -6 -110 -31 -21 -15 -54 -50 -73 -77 -48 -67
-58 -71 -142 -59 -39 5 -131 13 -203 17 -176 8 -209 18 -93 27 211 15 276 35
333 101 32 36 41 80 25 120 -6 17 -95 65 -120 65 -6 0 -24 5 -39 10 l-27 11
30 32 c48 50 159 202 221 301 69 113 124 238 159 364 24 86 27 115 27 262 1
149 -1 171 -22 221 -28 69 -81 133 -136 161 -54 28 -170 34 -246 13z m240 -64
c61 -36 97 -99 117 -201 38 -192 -28 -440 -190 -709 -101 -168 -341 -466 -431
-535 l-37 -28 -72 59 c-39 32 -132 117 -206 188 -562 546 -674 975 -301 1158
54 27 78 33 152 35 103 5 185 -17 286 -76 l63 -37 -56 -48 c-54 -48 -72 -87
-38 -87 9 0 43 23 75 51 58 51 59 51 85 34 14 -10 63 -53 109 -97 51 -49 85
-75 89 -68 8 13 -7 32 -112 140 l-73 76 79 52 c192 127 352 159 461 93z m497
-1671 c50 0 63 -3 63 -16 0 -43 -191 -152 -357 -203 -51 -16 -93 -28 -93 -26
0 2 24 17 53 33 29 16 96 75 151 132 71 74 101 99 109 91 6 -6 39 -11 74 -11z"/>
<path d="M870 2176 c-193 -43 -276 -199 -207 -390 27 -72 98 -191 151 -251
l35 -40 -31 95 c-27 83 -31 110 -32 210 -1 97 2 122 20 161 29 61 84 122 159
172 57 39 59 41 35 48 -36 10 -68 9 -130 -5z"/>
<path d="M629 1067 c-53 -15 -126 -56 -173 -98 -33 -29 -36 -29 -207 -39 -95
-6 -175 -13 -177 -15 -3 -2 -2 -11 1 -19 5 -12 28 -14 152 -9 l145 6 -2 -23
c-2 -12 4 -27 13 -33 13 -8 25 -3 59 26 28 24 54 37 79 39 30 3 36 6 34 25 -6
51 117 88 325 99 67 4 125 10 127 14 2 3 0 12 -5 20 -13 21 -304 26 -371 7z"/>
</g>
</svg>
