<?xml version="1.0" standalone="no"?>
<!DOCTYPE svg PUBLIC "-//W3C//DTD SVG 20010904//EN"
 "http://www.w3.org/TR/2001/REC-SVG-20010904/DTD/svg10.dtd">
<svg version="1.0" xmlns="http://www.w3.org/2000/svg"
 width="239.000000pt" height="291.000000pt" viewBox="0 0 239.000000 291.000000"
 preserveAspectRatio="xMidYMid meet">
<metadata>
Created by potrace 1.15, written by Peter Selinger 2001-2017
</metadata>
<g transform="translate(0.000000,291.000000) scale(0.100000,-0.100000)"
fill="#000000" stroke="none">
<path d="M1480 2680 c-36 -16 -75 -30 -86 -30 -26 0 -71 -34 -79 -60 -3 -11
-25 -28 -48 -38 -64 -29 -103 -67 -136 -134 -25 -49 -31 -74 -31 -126 0 -144
97 -469 200 -672 132 -259 297 -508 365 -552 30 -20 35 -28 35 -63 0 -119 -46
-257 -96 -290 -44 -29 -122 -30 -174 -3 -92 48 -151 167 -211 432 -21 94 -50
221 -65 281 -66 281 -158 387 -307 355 -215 -46 -338 -306 -354 -751 l-6 -157
-50 -6 c-102 -14 -179 -76 -230 -185 -27 -56 -31 -77 -31 -146 1 -138 54 -223
169 -269 48 -20 54 -25 36 -31 -14 -4 -21 -15 -21 -31 0 -35 37 -47 151 -48
91 -1 100 1 165 34 120 62 176 165 178 330 1 111 -14 150 -87 217 -43 39 -144
95 -200 108 -26 7 -27 10 -27 72 0 105 29 337 55 440 46 180 114 291 207 337
92 46 154 30 206 -51 44 -70 73 -159 142 -437 88 -356 141 -475 245 -548 77
-55 193 -47 264 18 64 57 84 118 89 261 2 68 8 123 12 123 15 0 98 87 152 161
92 124 203 308 256 424 89 196 159 448 169 606 5 88 4 101 -17 145 -31 63 -90
121 -156 151 -30 13 -54 31 -54 38 0 18 -48 55 -71 55 -10 0 -55 12 -100 26
-71 22 -88 24 -120 15 -47 -14 -69 -48 -69 -105 0 -33 6 -52 24 -73 23 -27 29
-28 118 -30 51 -2 112 -6 135 -9 34 -5 45 -2 63 16 l22 22 46 -29 c26 -16 62
-50 80 -77 27 -41 32 -57 32 -107 0 -118 -71 -406 -142 -577 -35 -85 -121
-205 -197 -275 -107 -100 -225 -126 -330 -72 -103 52 -216 187 -293 351 -78
166 -158 460 -158 578 0 59 43 141 93 177 46 33 65 35 108 13 27 -13 36 -14
72 -1 25 8 52 10 67 6 43 -12 120 -10 149 6 47 24 65 100 36 154 -15 31 -69
61 -107 61 -12 0 -52 -14 -88 -30z m450 -70 c19 -15 52 -30 73 -34 29 -5 37
-11 35 -24 -2 -11 -11 -16 -23 -13 -34 6 -78 4 -125 -7 -57 -13 -94 2 -98 40
-9 77 63 97 138 38z m-310 11 c17 -32 11 -60 -16 -77 -22 -15 -33 -16 -89 -6
-45 9 -71 9 -91 2 -18 -7 -31 -7 -37 -1 -15 15 0 41 25 41 13 0 48 13 78 30
65 35 115 39 130 11z m108 -1339 c37 3 89 15 116 27 27 12 51 20 53 17 8 -8
-140 -188 -163 -198 -22 -10 -29 -7 -65 28 -22 21 -62 71 -90 111 l-50 72 66
-31 c59 -27 74 -30 133 -26z m-1238 -508 c0 -13 7 -15 35 -10 70 13 221 -86
246 -162 13 -38 7 -145 -10 -203 -19 -61 -67 -118 -124 -145 -61 -28 -89 -31
-85 -8 2 13 -14 20 -78 33 -163 33 -230 106 -228 251 1 112 50 198 139 244 41
22 105 21 105 0z"/>
<path d="M424 626 c-69 -30 -98 -106 -69 -182 22 -57 54 -74 140 -74 114 0
155 39 155 150 0 46 -4 64 -19 79 -39 39 -147 53 -207 27z"/>
</g>
</svg>
