<?xml version="1.0" standalone="no"?>
<!DOCTYPE svg PUBLIC "-//W3C//DTD SVG 20010904//EN"
 "http://www.w3.org/TR/2001/REC-SVG-20010904/DTD/svg10.dtd">
<svg version="1.0" xmlns="http://www.w3.org/2000/svg"
 width="297.000000pt" height="266.000000pt" viewBox="0 0 297.000000 266.000000"
 preserveAspectRatio="xMidYMid meet">
<metadata>
Created by potrace 1.15, written by Peter Selinger 2001-2017
</metadata>
<g transform="translate(0.000000,266.000000) scale(0.100000,-0.100000)"
fill="#000000" stroke="none">
<path d="M1687 2605 c-123 -69 -256 -155 -460 -297 l-158 -110 -460 62 c-355
48 -463 59 -474 50 -8 -6 -17 -33 -21 -58 -11 -74 12 -482 72 -1242 33 -432
41 -511 51 -521 4 -4 145 -64 313 -132 421 -172 658 -276 690 -304 38 -32 63
-29 94 11 14 19 162 137 329 263 166 125 330 252 364 280 90 76 107 74 225
-24 51 -43 161 -136 243 -208 83 -72 185 -159 228 -194 60 -50 77 -70 77 -90
0 -50 11 -72 34 -69 14 2 22 11 24 29 2 21 7 26 23 22 23 -6 49 13 49 35 0 9
-19 36 -42 60 l-43 43 0 1002 c0 794 -3 1010 -13 1038 -11 31 -19 38 -50 44
-96 18 -612 216 -809 311 -146 70 -160 70 -286 -1z m206 -47 c100 -51 538
-223 714 -280 l161 -53 6 -80 c4 -44 7 -485 9 -981 l2 -900 -205 176 c-178
152 -292 247 -393 325 -25 20 -26 23 -37 220 -8 136 -16 204 -25 214 -30 31
-35 1 -35 -197 l-1 -197 -32 -36 c-46 -51 -136 -126 -437 -361 -146 -114 -283
-222 -305 -241 l-39 -34 -110 52 c-102 48 -305 133 -706 297 l-155 63 -7 85
c-68 801 -118 1583 -104 1597 5 5 577 -68 818 -104 37 -5 37 -6 54 -79 30
-127 40 -127 50 1 l7 90 56 41 c119 85 320 223 412 282 87 55 224 132 235 132
3 0 33 -14 67 -32z"/>
<path d="M1802 2265 c-97 -27 -159 -71 -195 -139 -19 -35 -22 -56 -21 -151 0
-133 24 -213 112 -388 57 -112 190 -324 226 -360 25 -24 36 -14 103 101 121
206 212 436 233 589 21 156 -21 273 -119 331 -42 25 -56 27 -166 29 -81 2
-137 -2 -173 -12z m249 -62 c153 -50 180 -211 83 -498 -47 -140 -175 -415
-193 -415 -14 0 -131 186 -193 308 -154 303 -156 506 -7 583 82 41 219 51 310
22z"/>
<path d="M1875 2125 c-98 -35 -119 -150 -41 -222 30 -28 43 -33 85 -33 43 0
53 4 75 31 49 58 28 192 -35 224 -34 18 -33 18 -84 0z"/>
<path d="M746 970 c-55 -66 -105 -120 -110 -120 -6 1 -40 37 -76 81 -47 58
-70 79 -85 77 -40 -6 -27 -38 50 -123 l77 -84 -87 -101 c-76 -88 -86 -102 -74
-116 12 -15 24 -6 104 80 l91 98 102 -116 c78 -88 109 -116 128 -116 19 0 24
5 24 25 0 14 -8 29 -19 35 -11 5 -61 55 -110 111 l-90 100 109 122 c111 123
130 159 85 165 -15 1 -46 -30 -119 -118z"/>
</g>
</svg>
