<?xml version="1.0" standalone="no"?>
<!DOCTYPE svg PUBLIC "-//W3C//DTD SVG 20010904//EN"
 "http://www.w3.org/TR/2001/REC-SVG-20010904/DTD/svg10.dtd">
<svg version="1.0" xmlns="http://www.w3.org/2000/svg"
 width="314.000000pt" height="370.000000pt" viewBox="0 0 314.000000 370.000000"
 preserveAspectRatio="xMidYMid meet">
<metadata>
Created by potrace 1.15, written by Peter Selinger 2001-2017
</metadata>
<g transform="translate(0.000000,370.000000) scale(0.100000,-0.100000)"
fill="#000000" stroke="none">
<path d="M1146 3404 c-9 -8 -16 -25 -16 -37 0 -58 -33 -85 -269 -223 -165 -96
-255 -209 -268 -336 -6 -55 -6 -56 -43 -62 -46 -7 -70 -33 -77 -84 -9 -70 45
-132 117 -132 11 0 23 -8 26 -17 35 -103 111 -209 184 -254 21 -14 25 -25 28
-88 3 -40 0 -77 -4 -81 -5 -5 -56 -16 -114 -26 -390 -61 -522 -207 -607 -664
-14 -75 -18 -148 -18 -345 1 -227 4 -272 34 -489 18 -132 37 -250 42 -263 6
-15 17 -23 33 -23 46 0 48 18 22 151 -57 290 -81 523 -72 714 11 251 47 428
116 571 70 145 170 219 345 255 119 25 152 25 160 -1 7 -23 124 -82 198 -101
69 -17 202 -7 253 19 44 22 114 94 114 116 0 23 93 39 184 33 77 -6 182 -30
199 -46 4 -4 -8 -33 -26 -64 -86 -142 -118 -342 -70 -433 32 -60 68 -99 123
-135 l49 -32 -37 -27 c-105 -76 -189 -209 -236 -374 -23 -78 -26 -107 -26
-245 0 -199 25 -502 42 -513 22 -14 57 -9 67 10 6 11 4 62 -5 142 -7 69 -17
213 -20 320 -7 223 -1 265 66 407 43 92 115 177 188 219 44 26 46 26 117 14
39 -7 108 -11 153 -9 45 2 82 3 82 1 0 -2 -11 -18 -24 -35 -50 -65 -43 -117
15 -117 16 0 29 -3 29 -6 0 -3 -23 -31 -50 -63 -27 -32 -50 -65 -50 -74 0 -27
60 -86 114 -114 60 -31 160 -42 206 -23 53 22 143 129 194 233 56 112 54 111
135 20 70 -78 134 -213 160 -333 27 -127 51 -344 51 -456 0 -99 9 -118 51
-112 41 6 44 26 26 195 -20 179 -55 365 -91 478 -34 106 -96 205 -184 294
l-76 76 3 56 c2 36 -3 67 -12 85 -17 32 -91 105 -150 149 l-37 28 25 23 c30
28 45 64 45 108 0 39 -27 70 -73 85 -31 11 -35 16 -41 58 -10 77 -63 171 -141
249 -86 88 -128 103 -295 111 -98 5 -117 3 -129 -10 -21 -26 -4 -37 57 -38 31
-1 48 -3 37 -6 -79 -17 -128 -37 -169 -69 -46 -35 -48 -35 -72 -19 -54 35
-139 56 -251 62 l-112 6 -21 58 c-22 59 -37 73 -60 59 -10 -6 -11 -28 -4 -104
l10 -96 -31 -29 c-90 -85 -209 -98 -340 -35 -53 25 -55 26 -40 47 11 15 15 47
15 110 l0 89 33 -8 c95 -22 258 0 351 48 109 55 200 182 230 319 4 20 14 28
36 33 50 10 80 47 80 101 0 26 -5 55 -10 66 -13 24 -61 49 -94 49 -22 0 -30
11 -64 83 -68 144 -198 259 -312 274 -54 7 -57 17 -15 43 72 45 109 152 63
184 -28 20 -33 20 -52 0z m71 -315 c76 -36 147 -111 192 -203 27 -56 31 -69
20 -82 -11 -13 -9 -19 11 -34 23 -17 24 -24 23 -112 -1 -69 -7 -108 -23 -151
-60 -160 -210 -259 -393 -260 -97 -1 -143 11 -217 55 -93 56 -177 192 -150
243 15 27 7 55 -14 55 -10 0 -16 18 -21 66 -15 138 16 242 97 321 57 55 154
113 192 113 17 1 54 7 81 15 65 19 125 11 202 -26z m879 -964 c45 -9 93 -25
116 -40 71 -47 158 -181 173 -267 6 -30 3 -38 -14 -47 -22 -12 -18 -41 6 -41
12 0 14 -10 10 -52 -11 -107 -17 -133 -42 -183 -55 -113 -129 -155 -274 -155
-217 1 -383 101 -406 246 -16 99 77 328 166 408 47 43 122 76 170 76 9 0 22 7
29 15 10 13 10 19 -5 35 -22 24 -26 24 71 5z m405 -671 c91 -48 139 -101 139
-154 0 -83 -91 -281 -169 -363 -14 -16 -44 -38 -65 -49 -36 -18 -45 -19 -92
-9 -53 12 -130 59 -141 86 -3 9 38 63 111 144 112 125 133 162 101 175 -21 8
-41 -2 -60 -30 -18 -27 -135 -91 -135 -73 0 7 47 60 105 119 71 72 105 113
105 129 0 23 16 61 26 61 4 0 37 -16 75 -36z"/>
<path d="M530 1262 c-20 -17 -20 -20 -6 -117 26 -170 38 -391 34 -605 l-3
-205 32 -3 c47 -5 52 15 37 138 -7 58 -16 251 -19 430 -4 179 -8 335 -10 346
-6 28 -40 36 -65 16z"/>
<path d="M2502 758 c-17 -17 -15 -281 3 -448 16 -143 29 -175 63 -154 19 13
19 -1 9 371 -3 122 -8 227 -12 233 -8 14 -48 13 -63 -2z"/>
</g>
</svg>
